<?xml version="1.0" encoding="UTF-8"?><svg id="Layer_2" xmlns="http://www.w3.org/2000/svg" viewBox="0 0 14.09 22.71"><defs><style>.cls-1{fill:#fff;}</style></defs><g id="Layer_1-2"><g><path class="cls-1" d="M7.05,18.33c1.54-4.04,2.89-7.6,4.29-11.26,1.3,.19,2,1.1,2.56,1.99,.27,.43,.23,1.23,.02,1.75-1.44,3.55-3.01,7.04-4.43,10.59-.51,1.28-1.42,1.29-2.49,1.31-1.12,.02-1.93-.15-2.42-1.39-1.26-3.19-2.67-6.31-4.01-9.47-1.09-2.57-.75-3.34,2.16-4.79,1.38,3.61,2.76,7.21,4.32,11.28Z"/><path class="cls-1" d="M4.59,0h4.89c-.74,2.03-1.45,3.96-2.16,5.89l-.48,.02c-.74-1.93-1.47-3.87-2.25-5.91Z"/></g></g></svg>