<?xml version="1.0" encoding="UTF-8"?><svg id="Layer_2" xmlns="http://www.w3.org/2000/svg" viewBox="0 0 94.92 91.27"><g id="Layer_1-2"><g><path d="M23.23,88.3c-5.5-3.29-9.86-7.21-13.48-11.95-3.15-4.11-3.12-4.13-1.11-8.86C17.73,46.11,26.83,24.75,35.87,3.35c.7-1.67,1.58-2.45,3.41-2.73,5.58-.85,11.11-.83,16.68,.07,1.55,.25,2.34,.91,2.93,2.32,5.22,12.43,10.51,24.84,15.79,37.25,4.25,9.99,8.49,19.98,12.78,29.95,.52,1.21,.51,2.14-.25,3.28-3.65,5.45-8.17,10.01-13.64,13.63-.4,.26-.81,.51-1.23,.75-.13,.07-.3,.05-.77,.13-7.92-21.12-15.87-42.3-24.02-64.04-2.47,5.57-4.21,10.89-6.22,16.09-2.06,5.36-4.03,10.76-6.04,16.14-1.99,5.3-4,10.6-5.99,15.91-1.99,5.3-3.97,10.6-6.06,16.19Z"/><path d="M47.73,48.18c5.31,14.16,10.61,28.32,16.13,43.04-11.09-6.3-21.76-6.35-32.83,.05,5.53-14.75,10.85-28.95,16.18-43.16l.53,.07Z"/><path d="M24.27,6.13c-1.9,2.73-3.95,5.29-5.56,8.1-2.74,4.79-3.96,10.07-3.91,15.6,.01,1.47-.26,2.81-.84,4.16-3.59,8.35-7.12,16.72-10.67,25.09-.27,.65-.59,1.28-.92,1.99-2.72-4.94-3.37-17.49-.5-27.13C5.32,22.31,14.3,11.02,24.27,6.13Z"/><path d="M70.33,6.06c20.21,10.51,29.05,35.28,22.41,55.14-.38-.66-.71-1.13-.93-1.65-3.73-8.74-7.46-17.48-11.14-26.23-.36-.86-.61-1.84-.59-2.76,.18-9.09-2.9-16.89-9.05-23.53-.16-.17-.28-.38-.7-.96Z"/></g></g></svg>