<?xml version="1.0" encoding="UTF-8"?><svg id="Layer_2" xmlns="http://www.w3.org/2000/svg" viewBox="0 0 854.63 853.91"><defs><style>.cls-1{fill:#d8ba39;}</style></defs><g id="Layer_1-2"><g><path class="cls-1" d="M780.1,670.12c-.64,.98-1.33,2.11-2.1,3.19-16.42,23.12-34.67,44.68-55.29,64.18-15.5,14.66-32.1,27.97-49.51,40.27-3.96,2.8-3.97,2.78-7.35-.6-52.21-52.32-104.41-104.66-156.65-156.96-47.17-47.23-94.4-94.42-141.57-141.65-52.69-52.77-105.34-105.58-158.02-158.36-44.09-44.16-88.21-88.3-132.32-132.45q-3.21-3.21-.8-6.85c10.21-15.45,22.12-29.55,34.49-43.27,19.9-22.07,42.33-41.33,66.31-58.8,2.52-1.84,4.98-4.92,7.95-4.76,3.02,.16,4.77,3.78,6.97,5.98,16.9,16.85,33.77,33.74,50.62,50.65,16.59,16.65,33.11,33.38,49.72,50.01,28.34,28.35,56.77,56.63,85.11,84.98,49.52,49.55,99.01,99.13,148.51,148.7,49.27,49.33,98.56,98.65,147.81,148,34.57,34.64,69.1,69.32,103.62,104,1.01,1.02,2.42,1.83,2.49,3.76Z"/><path class="cls-1" d="M689.71,88.96c69.72,55.16,119.32,124.4,145.43,209.88,30.65,100.36,24.69,198.95-14.6,296.17-2.51-1.29-3.82-3.05-5.31-4.54-57.17-57.21-114.31-114.43-171.45-171.66-21.16-21.19-42.31-42.39-63.47-63.58-.47-.47-.99-.89-1.43-1.39-2.1-2.34-2.12-2.63,.45-4.62,14.6-11.34,28.19-23.79,40.82-37.3,14.6-15.61,27.15-32.7,37.72-51.29,9.09-15.98,16.29-32.75,21.6-50.31,4.38-14.48,7.36-29.26,9.19-44.32,1.27-10.42,2.02-20.85,2.15-31.29,.13-10.79,.11-21.61-1.16-32.37-.5-4.26-.7-8.56-1.04-12.85l1.11-.53Z"/><path class="cls-1" d="M165.55,764.55C22.3,657.95-45.09,450.95,32.82,261.74c1.99,.18,3.01,1.85,4.22,3.05,43.29,43.28,86.53,86.62,129.82,129.91,35.17,35.18,70.38,70.31,105.56,105.46,.59,.59,1.11,1.24,1.71,1.82,1.38,1.36,1.23,2.46-.31,3.66-4.06,3.17-8.11,6.37-12.06,9.68-23.1,19.4-43.09,41.57-59.12,67.17-12.78,20.42-22.43,42.24-28.85,65.51-6.54,23.72-9.79,47.81-9.86,72.41-.03,11.82,.38,23.61,1.21,35.39,.19,2.77,1.48,5.47,.41,8.73Z"/><path class="cls-1" d="M594.64,821.85c-8.14,2.68-15.54,5.09-22.92,7.55-13.08,4.37-26.18,8.67-39.49,12.3-19.12,5.21-38.6,8.49-58.33,10.23-17.57,1.55-35.17,2.32-52.81,1.82-4.32-.12-8.64-.32-12.95-.65-4.83-.37-8.88-2.47-12.32-5.9-24.12-24.11-48.29-48.16-72.4-72.28-29.99-30-59.95-60.03-89.89-90.08-2.1-2.1-4.44-4-5.86-6.75-1.88-3.63-2.05-7.1-.43-10.98,11.78-28.33,27.34-54.27,47.82-77.22,12.9-14.45,27.35-27.15,42.93-38.59,3.89-2.86,3.99-2.8,7.36,.58,16.1,16.11,32.17,32.24,48.26,48.36,19.37,19.42,38.75,38.83,58.12,58.25,28.99,29.06,57.95,58.15,86.97,87.18,24.55,24.56,49.15,49.06,73.73,73.6,.57,.57,1.06,1.23,2.21,2.59Z"/><path class="cls-1" d="M261.51,32.49c5.36-2.95,10.55-4.7,15.61-6.62,14.92-5.66,30.07-10.63,45.59-14.39,14.86-3.61,29.88-6.26,45.1-8.02,17.35-2,34.75-2.88,52.18-3.39,8.79-.26,17.6,.31,26.4,.6,4.67,.15,8.41,1.99,11.85,5.43,24.63,24.7,49.49,49.18,74.2,73.81,19.3,19.24,38.48,38.59,57.7,57.9,11.13,11.18,22.23,22.41,33.37,33.58,4.69,4.7,5.95,9.8,3.6,16.31-8.59,23.79-22.26,44.53-37.78,64.2-12.3,15.58-25.75,30.05-41.55,42.18-3.3,2.53-6.69,4.95-10.12,7.29-4.65,3.17-4.74,3.13-8.72-.84-11.06-11.06-22.12-22.13-33.17-33.2-36.34-36.38-72.67-72.76-109.01-109.14-40.45-40.5-80.91-80.99-121.36-121.49-1.17-1.17-2.25-2.42-3.9-4.2Z"/></g></g></svg>